<svg width="38" height="77" viewBox="0 0 38 77" fill="none" xmlns="http://www.w3.org/2000/svg">
<path d="M0.666509 39.0001C0.664133 40.2657 1.08796 41.4923 1.86442 42.4668L27.9061 74.9668C28.7901 76.073 30.0605 76.7686 31.4377 76.9007C32.8149 77.0327 34.1862 76.5904 35.2498 75.671C36.3135 74.7515 36.9823 73.4304 37.1093 71.9981C37.2363 70.5657 36.811 69.1396 35.9269 68.0335L12.5936 39.0001L35.0936 9.96676C35.5262 9.4127 35.8493 8.77518 36.0443 8.09084C36.2392 7.4065 36.3022 6.68884 36.2296 5.97911C36.157 5.26937 35.9502 4.58155 35.6212 3.95518C35.2922 3.32882 34.8474 2.77625 34.3123 2.32925C33.7768 1.8332 33.1485 1.4575 32.4669 1.22571C31.7853 0.993911 31.065 0.911026 30.3511 0.982216C29.6372 1.05341 28.9452 1.27715 28.3183 1.63943C27.6915 2.00172 27.1433 2.49474 26.7082 3.08759L1.55193 35.5876C0.898199 36.5901 0.586454 37.7916 0.666509 39.0001Z" fill="#FF9900"/>
</svg>
