<svg width="38" height="77" viewBox="0 0 38 77" fill="none" xmlns="http://www.w3.org/2000/svg">
<path d="M37.3335 39.0001C37.3358 40.2657 36.912 41.4923 36.1355 42.4668L10.0939 74.9668C9.20981 76.073 7.93944 76.7686 6.56222 76.9007C5.185 77.0327 3.81374 76.5904 2.75011 75.671C1.68648 74.7515 1.01761 73.4304 0.89063 71.9981C0.763652 70.5657 1.18897 69.1396 2.07303 68.0335L25.4064 39.0001L2.90636 9.96676C2.47373 9.4127 2.15065 8.77518 1.95569 8.09084C1.76073 7.4065 1.69774 6.68884 1.77034 5.97911C1.84294 5.26937 2.0497 4.58155 2.37873 3.95518C2.70776 3.32882 3.15258 2.77625 3.68761 2.32925C4.22314 1.8332 4.8514 1.4575 5.53304 1.22571C6.21467 0.993911 6.93499 0.911026 7.64886 0.982216C8.36273 1.05341 9.05477 1.27715 9.68163 1.63943C10.3085 2.00172 10.8567 2.49474 11.2918 3.08759L36.448 35.5876C37.1018 36.5901 37.4135 37.7916 37.3335 39.0001Z" fill="#FF9900"/>
</svg>
