<svg width="48" height="25" viewBox="0 0 48 25" fill="none" xmlns="http://www.w3.org/2000/svg">
<path d="M23.9999 24.3331C23.2211 24.3346 22.4663 24.0634 21.8666 23.5665L1.86659 6.89979C1.18587 6.33399 0.757786 5.52095 0.67652 4.63953C0.595254 3.75811 0.86746 2.8805 1.43326 2.19978C1.99905 1.51906 2.81209 1.09098 3.69351 1.00971C4.57493 0.928444 5.45254 1.20065 6.13326 1.76644L23.9999 16.6998L41.8666 2.29978C42.2076 2.02289 42.5999 1.81612 43.021 1.69135C43.4422 1.56657 43.8838 1.52626 44.3206 1.57272C44.7573 1.61919 45.1806 1.75151 45.5661 1.96209C45.9515 2.17267 46.2915 2.45735 46.5666 2.79978C46.8719 3.14251 47.1031 3.5446 47.2457 3.98085C47.3884 4.41709 47.4394 4.8781 47.3956 5.33498C47.3518 5.79185 47.2141 6.23476 46.9911 6.63595C46.7682 7.03714 46.4648 7.38797 46.1 7.66645L26.0999 23.7665C25.483 24.1848 24.7436 24.3844 23.9999 24.3331Z" fill="#FF9900"/>
</svg>
