<svg width="48" height="25" viewBox="0 0 48 25" fill="none" xmlns="http://www.w3.org/2000/svg">
<path d="M24.0026 0.66689C24.7814 0.665368 25.5362 0.936618 26.1359 1.43355L46.1359 18.1002C46.8166 18.666 47.2447 19.4791 47.326 20.3605C47.4072 21.2419 47.135 22.1195 46.5692 22.8002C46.0035 23.4809 45.1904 23.909 44.309 23.9903C43.4276 24.0716 42.55 23.7994 41.8692 23.2336L24.0026 8.30022L6.13588 22.7002C5.79492 22.9771 5.4026 23.1839 4.98147 23.3087C4.56033 23.4334 4.1187 23.4737 3.68194 23.4273C3.24518 23.3808 2.8219 23.2485 2.43644 23.0379C2.05099 22.8273 1.71095 22.5426 1.43587 22.2002C1.13061 21.8575 0.899411 21.4554 0.756768 21.0192C0.614126 20.5829 0.563116 20.1219 0.606927 19.665C0.650737 19.2081 0.788423 18.7652 1.01137 18.3641C1.23431 17.9629 1.53771 17.612 1.90254 17.3336L21.9026 1.23356C22.5195 0.81517 23.2589 0.615654 24.0026 0.66689V0.66689Z" fill="#FF9900"/>
</svg>
