<svg width="70" height="70" viewBox="0 0 70 70" fill="none" xmlns="http://www.w3.org/2000/svg">
<path d="M35 6.5625C19.3197 6.5625 6.5625 19.3197 6.5625 35C6.5625 50.6803 19.3197 63.4375 35 63.4375C50.6803 63.4375 63.4375 50.6803 63.4375 35C63.4375 19.3197 50.6803 6.5625 35 6.5625ZM45.2963 42.2037C45.508 42.4048 45.6772 42.6463 45.7941 42.9138C45.911 43.1814 45.9732 43.4696 45.9769 43.7616C45.9807 44.0536 45.9259 44.3433 45.8159 44.6138C45.7059 44.8842 45.5429 45.1299 45.3364 45.3364C45.1299 45.5429 44.8842 45.7059 44.6138 45.8159C44.3433 45.9259 44.0536 45.9807 43.7616 45.9769C43.4696 45.9732 43.1814 45.911 42.9138 45.7941C42.6463 45.6772 42.4048 45.508 42.2037 45.2963L35 38.0939L27.7963 45.2963C27.3827 45.6892 26.832 45.905 26.2616 45.8977C25.6912 45.8904 25.1462 45.6606 24.7428 45.2572C24.3394 44.8538 24.1096 44.3088 24.1023 43.7384C24.095 43.168 24.3108 42.6173 24.7037 42.2037L31.9061 35L24.7037 27.7963C24.3108 27.3827 24.095 26.832 24.1023 26.2616C24.1096 25.6912 24.3394 25.1462 24.7428 24.7428C25.1462 24.3394 25.6912 24.1096 26.2616 24.1023C26.832 24.095 27.3827 24.3108 27.7963 24.7037L35 31.9061L42.2037 24.7037C42.6173 24.3108 43.168 24.095 43.7384 24.1023C44.3088 24.1096 44.8538 24.3394 45.2572 24.7428C45.6606 25.1462 45.8904 25.6912 45.8977 26.2616C45.905 26.832 45.6892 27.3827 45.2963 27.7963L38.0939 35L45.2963 42.2037Z" fill="#DEDEDE"/>
</svg>
