<svg width="29" height="29" viewBox="0 0 29 29" fill="none" xmlns="http://www.w3.org/2000/svg">
<path d="M14.5 8.69166C11.2857 8.69166 8.69152 11.2858 8.69152 14.5002C8.69152 17.7145 11.2857 20.3087 14.5 20.3087C17.7144 20.3087 20.3085 17.7145 20.3085 14.5002C20.3085 11.2858 17.7144 8.69166 14.5 8.69166ZM14.5 18.2753C12.4213 18.2753 10.7249 16.5789 10.7249 14.5002C10.7249 12.4214 12.4213 10.7251 14.5 10.7251C16.5787 10.7251 18.2751 12.4214 18.2751 14.5002C18.2751 16.5789 16.5787 18.2753 14.5 18.2753ZM20.5464 7.10006C19.7959 7.10006 19.1899 7.70612 19.1899 8.4566C19.1899 9.20709 19.7959 9.81315 20.5464 9.81315C21.2969 9.81315 21.9029 9.20992 21.9029 8.4566C21.9032 8.2784 21.8682 8.1019 21.8001 7.93721C21.732 7.77253 21.6321 7.6229 21.5061 7.49688C21.3801 7.37087 21.2305 7.27096 21.0658 7.20287C20.9011 7.13477 20.7246 7.09984 20.5464 7.10006ZM25.8225 14.5002C25.8225 12.9369 25.8366 11.3878 25.7488 9.82731C25.661 8.01481 25.2476 6.40621 23.9222 5.08082C22.594 3.7526 20.9882 3.34196 19.1757 3.25416C17.6124 3.16637 16.0633 3.18053 14.5028 3.18053C12.9396 3.18053 11.3904 3.16637 9.82999 3.25416C8.01749 3.34196 6.4089 3.75543 5.08351 5.08082C3.75529 6.40905 3.34464 8.01481 3.25685 9.82731C3.16906 11.3906 3.18322 12.9397 3.18322 14.5002C3.18322 16.0606 3.16906 17.6126 3.25685 19.173C3.34464 20.9855 3.75812 22.5941 5.08351 23.9195C6.41173 25.2477 8.01749 25.6584 9.82999 25.7462C11.3933 25.8339 12.9424 25.8198 14.5028 25.8198C16.0661 25.8198 17.6152 25.8339 19.1757 25.7462C20.9882 25.6584 22.5968 25.2449 23.9222 23.9195C25.2504 22.5913 25.661 20.9855 25.7488 19.173C25.8395 17.6126 25.8225 16.0634 25.8225 14.5002ZM23.3303 21.1781C23.1235 21.6935 22.8743 22.0787 22.475 22.4752C22.0757 22.8745 21.6934 23.1237 21.1779 23.3304C19.6883 23.9223 16.1511 23.7892 14.5 23.7892C12.8489 23.7892 9.3089 23.9223 7.81925 23.3333C7.30382 23.1265 6.91866 22.8773 6.52218 22.478C6.12286 22.0787 5.87365 21.6964 5.66691 21.1809C5.07784 19.6884 5.21095 16.1512 5.21095 14.5002C5.21095 12.8491 5.07784 9.30905 5.66691 7.8194C5.87365 7.30397 6.12286 6.91881 6.52218 6.52233C6.9215 6.12584 7.30382 5.87379 7.81925 5.66705C9.3089 5.07799 12.8489 5.2111 14.5 5.2111C16.1511 5.2111 19.6911 5.07799 21.1808 5.66705C21.6962 5.87379 22.0814 6.12301 22.4778 6.52233C22.8772 6.92164 23.1264 7.30397 23.3331 7.8194C23.9222 9.30905 23.7891 12.8491 23.7891 14.5002C23.7891 16.1512 23.9222 19.6884 23.3303 21.1781Z" fill="#FF9900"/>
</svg>
