<svg width="70" height="70" viewBox="0 0 70 70" fill="none" xmlns="http://www.w3.org/2000/svg">
<path d="M43.2879 8H26.7121C11.5858 8 7.99997 11.5858 7.99997 26.7121V43.2879C7.99997 58.4142 11.5858 62 26.7121 62H43.2879C58.4141 62 62 58.4142 62 43.2879V26.7121C62 11.5858 58.3787 8 43.2879 8ZM51.5935 46.521H47.6735C46.1886 46.521 45.7313 45.3432 43.0601 42.6365C40.7398 40.3872 39.7122 40.0885 39.1401 40.0885C38.3318 40.0885 38.1023 40.3163 38.1023 41.425V44.9669C38.1023 45.9169 37.8037 46.4873 35.2894 46.4873C31.1315 46.4873 26.518 43.973 23.2832 39.2886C18.4048 32.4241 17.07 27.2825 17.07 26.2194C17.07 25.6473 17.2978 25.1124 18.3963 25.1124H22.3247C23.3186 25.1124 23.6966 25.5697 24.083 26.6328C26.0253 32.2402 29.2601 37.1523 30.5949 37.1523C31.0876 37.1523 31.3154 36.9245 31.3154 35.6674V29.8761C31.1652 27.2048 29.7596 26.9753 29.7596 26.027C29.7596 25.5697 30.1376 25.1124 30.7434 25.1124H36.9211C37.7564 25.1124 38.0635 25.5697 38.0635 26.5535V34.3664C38.0635 35.2101 38.4415 35.5088 38.6693 35.5088C39.1621 35.5088 39.5839 35.2101 40.4968 34.2955C43.3182 31.1315 45.3398 26.2531 45.3398 26.2531C45.603 25.6811 46.0603 25.1462 47.0542 25.1462H50.9826C52.1605 25.1462 52.4237 25.7519 52.1605 26.5957C51.6677 28.8805 46.8602 35.6657 46.8602 35.6657C46.4468 36.3508 46.2881 36.6495 46.8602 37.4139C47.2821 37.9859 48.6539 39.1722 49.5669 40.2353C51.2459 42.1421 52.5368 43.7418 52.881 44.8488C53.2674 45.9473 52.6971 46.5194 51.5884 46.5194L51.5935 46.521Z" fill="#AAAAAA"/>
</svg>
