<svg width="64" height="64" viewBox="0 0 64 64" fill="none" xmlns="http://www.w3.org/2000/svg">
<path d="M58.8261 20.9384C58.7958 18.671 58.3707 16.4262 57.5696 14.3044C56.875 12.5146 55.814 10.8892 54.4545 9.53192C53.095 8.17469 51.4669 7.11549 49.6741 6.422C47.5761 5.63573 45.3596 5.21058 43.1191 5.16465C40.2343 5.03592 39.3197 5 31.997 5C24.6743 5 23.7357 5 20.8719 5.16465C18.6324 5.21092 16.417 5.63606 14.3199 6.422C12.5268 7.115 10.8984 8.17403 9.53888 9.53133C8.17932 10.8886 7.11853 12.5143 6.42437 14.3044C5.63521 16.3973 5.21028 18.6096 5.16793 20.8456C5.03898 23.7285 5 24.6415 5 31.9521C5 39.2627 5 40.1967 5.16793 43.0587C5.21291 45.2979 5.63572 47.5073 6.42437 49.6058C7.11969 51.3953 8.18127 53.0204 9.54129 54.3771C10.9013 55.7338 12.5298 56.7924 14.3229 57.4852C16.4142 58.3031 18.6301 58.7587 20.8749 58.8324C23.7627 58.9611 24.6773 59 32 59C39.3227 59 40.2613 59 43.1251 58.8324C45.3655 58.7883 47.5822 58.3642 49.6801 57.578C51.4724 56.8837 53.1001 55.8242 54.4595 54.4671C55.8189 53.11 56.8802 51.4849 57.5756 49.6956C58.3643 47.6001 58.7871 45.3907 58.8321 43.1485C58.961 40.2685 59 39.3555 59 32.0419C58.994 24.7313 58.994 23.8033 58.8261 20.9384ZM31.979 45.7769C24.3204 45.7769 18.1162 39.583 18.1162 31.9371C18.1162 24.2913 24.3204 18.0974 31.979 18.0974C35.6557 18.0974 39.1817 19.5555 41.7815 22.1509C44.3813 24.7464 45.8419 28.2666 45.8419 31.9371C45.8419 35.6077 44.3813 39.1279 41.7815 41.7233C39.1817 44.3188 35.6557 45.7769 31.979 45.7769ZM46.3936 20.8126C44.6034 20.8126 43.161 19.3697 43.161 17.5854C43.161 17.1618 43.2446 16.7424 43.407 16.351C43.5694 15.9597 43.8074 15.6041 44.1074 15.3045C44.4074 15.005 44.7636 14.7674 45.1556 14.6053C45.5476 14.4432 45.9678 14.3597 46.3921 14.3597C46.8164 14.3597 47.2366 14.4432 47.6286 14.6053C48.0206 14.7674 48.3768 15.005 48.6768 15.3045C48.9768 15.6041 49.2148 15.9597 49.3772 16.351C49.5396 16.7424 49.6232 17.1618 49.6232 17.5854C49.6232 19.3697 48.1778 20.8126 46.3936 20.8126Z" fill="#AAAAAA"/>
<path d="M31.9839 39.9511C36.4066 39.9511 39.9919 36.3658 39.9919 31.9431C39.9919 27.5204 36.4066 23.9351 31.9839 23.9351C27.5612 23.9351 23.9759 27.5204 23.9759 31.9431C23.9759 36.3658 27.5612 39.9511 31.9839 39.9511Z" fill="#AAAAAA"/>
</svg>
