<svg width="35" height="35" viewBox="0 0 35 35" fill="none" xmlns="http://www.w3.org/2000/svg">
<path d="M17.15 3C11.5385 3 7 7.5385 7 13.15C7 20.7625 17.15 32 17.15 32C17.15 32 27.3 20.7625 27.3 13.15C27.3 7.5385 22.7615 3 17.15 3ZM17.15 16.775C16.1886 16.775 15.2666 16.3931 14.5867 15.7133C13.9069 15.0334 13.525 14.1114 13.525 13.15C13.525 12.1886 13.9069 11.2666 14.5867 10.5867C15.2666 9.90692 16.1886 9.525 17.15 9.525C18.1114 9.525 19.0334 9.90692 19.7133 10.5867C20.3931 11.2666 20.775 12.1886 20.775 13.15C20.775 14.1114 20.3931 15.0334 19.7133 15.7133C19.0334 16.3931 18.1114 16.775 17.15 16.775Z" fill="#00A6FF"/>
</svg>
