<svg width="22" height="22" viewBox="0 0 22 22" fill="none" xmlns="http://www.w3.org/2000/svg">
<path d="M6.1875 9.04492C6.1875 9.31843 6.29615 9.58073 6.48955 9.77413C6.68294 9.96752 6.94525 10.0762 7.21875 10.0762C7.49225 10.0762 7.75456 9.96752 7.94795 9.77413C8.14135 9.58073 8.25 9.31843 8.25 9.04492C8.25 8.77142 8.14135 8.50911 7.94795 8.31572C7.75456 8.12232 7.49225 8.01367 7.21875 8.01367C6.94525 8.01367 6.68294 8.12232 6.48955 8.31572C6.29615 8.50911 6.1875 8.77142 6.1875 9.04492ZM13.75 9.04492C13.75 9.31843 13.8587 9.58073 14.052 9.77413C14.2454 9.96752 14.5077 10.0762 14.7812 10.0762C15.0548 10.0762 15.3171 9.96752 15.5105 9.77413C15.7038 9.58073 15.8125 9.31843 15.8125 9.04492C15.8125 8.77142 15.7038 8.50911 15.5105 8.31572C15.3171 8.12232 15.0548 8.01367 14.7812 8.01367C14.5077 8.01367 14.2454 8.12232 14.052 8.31572C13.8587 8.50911 13.75 8.77142 13.75 9.04492ZM11 1.375C5.68477 1.375 1.375 5.68477 1.375 11C1.375 16.3152 5.68477 20.625 11 20.625C16.3152 20.625 20.625 16.3152 20.625 11C20.625 5.68477 16.3152 1.375 11 1.375ZM16.6504 16.6504C15.9156 17.3852 15.0605 17.9609 14.1088 18.3648C13.127 18.7816 12.0807 18.9922 11 18.9922C9.91934 18.9922 8.87305 18.7816 7.88906 18.3648C6.93875 17.9635 6.07553 17.3812 5.34746 16.6504C4.6127 15.9156 4.03691 15.0605 3.63301 14.1088C3.21836 13.127 3.00781 12.0807 3.00781 11C3.00781 9.91934 3.21836 8.87305 3.63516 7.88906C4.0365 6.93875 4.61879 6.07553 5.34961 5.34746C6.08437 4.6127 6.93945 4.03691 7.89121 3.63301C8.87305 3.21836 9.91934 3.00781 11 3.00781C12.0807 3.00781 13.127 3.21836 14.1109 3.63516C15.0613 4.0365 15.9245 4.61879 16.6525 5.34961C17.3873 6.08437 17.9631 6.93945 18.367 7.89121C18.7816 8.87305 18.9922 9.91934 18.9922 11C18.9922 12.0807 18.7816 13.127 18.3648 14.1109C17.964 15.0609 17.3816 15.9235 16.6504 16.6504ZM14.2656 11.4512H13.2322C13.142 11.4512 13.0646 11.5199 13.0582 11.6102C12.9766 12.6736 12.085 13.5137 11 13.5137C9.91504 13.5137 9.02129 12.6736 8.9418 11.6102C8.93535 11.5199 8.85801 11.4512 8.76777 11.4512H7.73438C7.71106 11.4511 7.68799 11.4559 7.66655 11.465C7.64512 11.4742 7.62578 11.4876 7.6097 11.5045C7.59362 11.5214 7.58115 11.5414 7.57303 11.5632C7.56492 11.5851 7.56133 11.6084 7.5625 11.6316C7.65703 13.4428 9.16309 14.8887 11 14.8887C12.8369 14.8887 14.343 13.4428 14.4375 11.6316C14.4387 11.6084 14.4351 11.5851 14.427 11.5632C14.4189 11.5414 14.4064 11.5214 14.3903 11.5045C14.3742 11.4876 14.3549 11.4742 14.3334 11.465C14.312 11.4559 14.2889 11.4511 14.2656 11.4512Z" fill="#00A6FF"/>
</svg>
