<svg width="35" height="35" viewBox="0 0 35 35" fill="none" xmlns="http://www.w3.org/2000/svg">
<path d="M22.2359 23.4938L24.6859 21.0438C25.0159 20.7179 25.4334 20.4948 25.8877 20.4016C26.342 20.3084 26.8137 20.3491 27.2453 20.5188L30.2312 21.711C30.6674 21.888 31.0414 22.1902 31.3062 22.5795C31.5709 22.9688 31.7144 23.4277 31.7187 23.8985V29.3672C31.7162 29.6875 31.6489 30.0039 31.5208 30.2974C31.3928 30.5909 31.2067 30.8555 30.9737 31.0752C30.7407 31.2949 30.4657 31.4652 30.1651 31.5758C29.8646 31.6864 29.5448 31.735 29.225 31.7188C8.30154 30.4172 4.07967 12.6985 3.28123 5.91723C3.24416 5.58422 3.27803 5.24714 3.38059 4.92816C3.48316 4.60918 3.6521 4.31554 3.8763 4.06654C4.1005 3.81754 4.37489 3.61883 4.6814 3.48349C4.98791 3.34815 5.31961 3.27924 5.65467 3.28129H10.9375C11.4089 3.28269 11.8691 3.42509 12.2589 3.69017C12.6488 3.95525 12.9504 4.3309 13.125 4.76879L14.3172 7.75473C14.4924 8.18465 14.5372 8.65668 14.4457 9.11187C14.3543 9.56705 14.1308 9.98521 13.8031 10.3141L11.3531 12.7641C11.3531 12.7641 12.764 22.3125 22.2359 23.4938Z" fill="#00A6FF"/>
</svg>
