<svg width="72" height="72" viewBox="0 0 72 72" fill="none" xmlns="http://www.w3.org/2000/svg">
<path d="M33.8916 18.8915C32.9363 17.9362 31.6416 17.3999 30.2916 17.3999C27.48 17.3986 25.2013 19.6775 25.2 22.4891C25.2 22.4904 25.2 22.4904 25.2 22.4915C25.1987 26.2728 25.806 30.0287 27 33.6155L27.6 35.3999L28.6525 48.0215C28.7353 49.0272 29.5753 49.7999 30.5845 49.7999C31.6034 49.8035 32.4505 49.0163 32.5201 47.9999C32.7085 45.1787 33.1477 39.7295 33.4045 36.5903C33.5125 35.2379 34.6428 34.1963 36.0001 34.1999C37.3586 34.1999 38.4865 35.2463 38.5909 36.6L39.4681 48.0096C39.5461 49.0189 40.3874 49.7988 41.4001 49.8H41.4194C42.4287 49.8 43.2686 49.0273 43.3526 48.0217L44.4002 35.4L45 33.6155C46.1941 30.0287 46.8013 26.2728 46.8 22.4915C46.8013 19.6799 44.5224 17.4012 41.7108 17.3999C41.7095 17.3999 41.7095 17.3999 41.7084 17.3999C40.3584 17.3999 39.0637 17.9362 38.1084 18.8915C36.9444 20.0556 35.0556 20.0556 33.8916 18.8915Z" fill="#E6E6E6"/>
<path d="M28.6523 48.0215C28.7376 49.0896 29.6723 49.8851 30.7403 49.7999C31.6967 49.7231 32.454 48.9575 32.52 47.9999C32.6507 46.0379 32.9027 42.8135 33.1307 39.9695C31.6283 41.2115 29.9903 42.2795 28.2466 43.1518L28.6523 48.0215Z" fill="#DEDEDE"/>
<path d="M44.8272 18.4932C43.7615 24.4464 41.3796 30.0852 37.8551 34.9992C38.2787 35.4312 38.5367 35.9976 38.5847 36.5999L39.4619 48.0095C39.5399 49.0212 40.3847 49.8023 41.3998 49.7999H41.4191C42.4284 49.7999 43.2683 49.0272 43.3512 48.0216L44.3999 35.3999L45 33.6156C46.194 30.0288 46.8013 26.2728 46.8 22.4916C46.7963 20.9256 46.068 19.4496 44.8272 18.4932Z" fill="#DEDEDE"/>
<path d="M55.4916 18.8915C54.5363 17.9362 53.2416 17.3999 51.8916 17.3999C49.0799 17.3986 46.8013 19.6775 46.8 22.4891C46.8 22.4904 46.8 22.4904 46.8 22.4915C46.7987 26.2728 47.4059 30.0287 48.6 33.6155L49.2 35.3999L50.2525 48.0215C50.3353 49.0272 51.1753 49.7999 52.1845 49.7999C53.2034 49.8035 54.0505 49.0163 54.1201 47.9999C54.3085 45.1787 54.7477 39.7295 55.0045 36.5903C55.1125 35.2379 56.2428 34.1963 57.6001 34.1999C58.9586 34.1999 60.0865 35.2463 60.1909 36.6L61.0681 48.0096C61.1461 49.0189 61.9874 49.7988 63.0001 49.8H63.0194C64.0287 49.8 64.8686 49.0273 64.9526 48.0217L66.0002 35.4L66.6003 33.6156C67.7943 30.0289 68.4015 26.2729 68.4003 22.4917C68.4015 19.68 66.1227 17.4013 63.3111 17.4C63.3098 17.4 63.3098 17.4 63.3087 17.4C61.9587 17.4 60.6639 17.9364 59.7087 18.8917C58.5444 20.0556 56.6556 20.0556 55.4916 18.8915Z" fill="#E6E6E6"/>
<path d="M50.2524 48.0215C50.3376 49.0896 51.2723 49.8851 52.3404 49.7999C53.2968 49.7231 54.054 48.9575 54.12 47.9999C54.2507 46.0379 54.5028 42.8135 54.7307 39.9695C53.2283 41.2115 51.5903 42.2795 49.8467 43.1518L50.2524 48.0215Z" fill="#DEDEDE"/>
<path d="M66.4272 18.4932C65.3615 24.4464 62.9796 30.0852 59.4551 34.9992C59.8787 35.4312 60.1367 35.9976 60.1847 36.5999L61.0619 48.0095C61.1399 49.0212 61.9847 49.8023 62.9998 49.7999H63.0191C64.0284 49.7999 64.8683 49.0272 64.9512 48.0216L65.9999 35.3999L66.6 33.6156C67.794 30.0288 68.4013 26.2728 68.4 22.4916C68.3963 20.9256 67.668 19.4496 66.4272 18.4932Z" fill="#DEDEDE"/>
<path d="M12.2916 18.8915C11.3364 17.9362 10.0416 17.3999 8.69162 17.3999C5.87996 17.3986 3.60127 19.6775 3.60001 22.4891C3.60001 22.4904 3.60001 22.4904 3.60001 22.4915C3.59874 26.2728 4.20596 30.0287 5.40001 33.6155L6.00006 35.3999L7.05249 48.0215C7.13532 49.0272 7.97527 49.7999 8.98454 49.7999C10.0034 49.8035 10.8505 49.0163 10.9201 47.9999C11.1085 45.1787 11.5477 39.7295 11.8045 36.5903C11.9125 35.2379 13.0428 34.1963 14.4002 34.1999C15.7586 34.1999 16.8865 35.2463 16.9909 36.6L17.8681 48.0096C17.9461 49.0189 18.7874 49.7988 19.8001 49.8H19.8194C20.8287 49.8 21.6686 49.0273 21.7526 48.0217L22.8002 35.4L23.4003 33.6156C24.5943 30.0289 25.2016 26.2729 25.2003 22.4917C25.2016 19.68 22.9227 17.4013 20.1111 17.4C20.1098 17.4 20.1098 17.4 20.1087 17.4C18.7587 17.4 17.4639 17.9364 16.5087 18.8917C15.3444 20.0556 13.4556 20.0556 12.2916 18.8915Z" fill="#E6E6E6"/>
<path d="M7.05234 48.0215C7.13756 49.0896 8.07229 49.8851 9.14034 49.7999C10.0967 49.7231 10.854 48.9575 10.9199 47.9999C11.0507 46.0379 11.3027 42.8135 11.5307 39.9695C10.0282 41.2115 8.39025 42.2795 6.64664 43.1518L7.05234 48.0215Z" fill="#DEDEDE"/>
<path d="M23.2272 18.4932C22.1615 24.4464 19.7796 30.0852 16.2551 34.9992C16.6787 35.4312 16.9367 35.9976 16.9847 36.5999L17.8619 48.0095C17.94 49.0212 18.7847 49.8023 19.7999 49.7999H19.8191C20.8284 49.7999 21.6683 49.0272 21.7512 48.0216L22.8 35.3999L23.4 33.6156C24.594 30.0288 25.2013 26.2728 25.2 22.4916C25.1963 20.9256 24.468 19.4496 23.2272 18.4932Z" fill="#DEDEDE"/>
<path d="M12 25.8H0V28.2001H12V25.8Z" fill="#00A6FF"/>
<path d="M32.4 25.8H16.8V28.2001H32.4V25.8Z" fill="#00A6FF"/>
<path d="M54 25.8H38.4V28.2001H54V25.8Z" fill="#00A6FF"/>
<path d="M72 25.8H60V28.2001H72V25.8Z" fill="#00A6FF"/>
<path d="M66 35.3999L64.9475 48.0216C64.8647 49.0272 64.0248 49.7999 63.0155 49.7999H63C61.986 49.7999 61.1436 49.0199 61.0656 48.0095L60.1848 36.5999C60.0732 35.1683 58.8229 34.0991 57.3925 34.2095C56.1216 34.308 55.1101 35.3147 55.0032 36.5855C54.7465 39.7247 54.3073 45.1739 54.1189 47.9951C54.0421 49.0632 53.1145 49.8671 52.0465 49.7903C51.0948 49.722 50.3341 48.9719 50.2525 48.0216L49.2829 36.3936H49.2001C47.8741 35.0687 45.7261 35.0687 44.4001 36.3936H44.3173L43.3477 48.0216C43.2648 49.0272 42.4249 49.7999 41.4156 49.7999H41.4C40.386 49.7999 39.5436 49.0199 39.4656 48.0095L38.5848 36.5999C38.4732 35.1683 37.2229 34.0991 35.7925 34.2095C34.5216 34.308 33.5101 35.3147 33.4032 36.5855C33.1465 39.7247 32.7073 45.1739 32.5188 47.9951C32.4421 49.0632 31.5145 49.8671 30.4465 49.7903C29.4948 49.722 28.7341 48.9719 28.6525 48.0216L27.6998 36.6H27.6002C26.2754 35.2741 24.1262 35.274 22.8014 36.5987C22.8014 36.5987 22.8014 36.5987 22.8001 36.6H22.7005L21.7478 48.0216C21.665 49.0272 20.825 49.7999 19.8158 49.7999H19.8C18.786 49.7999 17.9436 49.0199 17.8656 48.0095L16.9848 36.5999C16.8732 35.1683 15.6229 34.0991 14.1925 34.2095C12.9216 34.308 11.9101 35.3147 11.8032 36.5855C11.5464 39.7247 11.1073 45.1739 10.9188 47.9951C10.8421 49.0632 9.9145 49.8671 8.84645 49.7903C7.89484 49.722 7.13406 48.9719 7.0525 48.0216L6.00006 35.3999C5.12045 34.074 3.33367 33.7127 2.00771 34.5923C1.68737 34.8046 1.41245 35.0796 1.2001 35.3999V54.5999H70.8001V35.3999C69.9205 34.074 68.1337 33.7127 66.8077 34.5923C66.4872 34.8048 66.2125 35.0796 66 35.3999Z" fill="#F7A6A6"/>
<path d="M38.4001 30.6H33.6001C32.9378 30.6 32.4001 30.0624 32.4001 29.4001V24.6001C32.4001 23.9378 32.9378 23.4001 33.6001 23.4001H38.4001C39.0624 23.4001 39.6 23.9378 39.6 24.6001V29.4001C39.6 30.0624 39.0624 30.6 38.4001 30.6ZM34.8001 28.2H37.2001V25.7999H34.8001V28.2Z" fill="#86C8DC"/>
<path d="M16.8 30.6H12C11.3376 30.6 10.8 30.0624 10.8 29.4001V24.6001C10.8 23.9378 11.3376 23.4001 12 23.4001H16.7999C17.4623 23.4001 17.9999 23.9378 17.9999 24.6001V29.4001C18 30.0624 17.4624 30.6 16.8 30.6ZM13.2 28.2H15.6001V25.7999H13.2V28.2Z" fill="#86C8DC"/>
<path d="M60.0001 30.6H55.2001C54.5378 30.6 54.0001 30.0624 54.0001 29.4001V24.6001C54.0001 23.9378 54.5378 23.4001 55.2001 23.4001H60.0001C60.6624 23.4001 61.2 23.9378 61.2 24.6001V29.4001C61.2 30.0624 60.6624 30.6 60.0001 30.6ZM56.4 28.2H58.8001V25.7999H56.4V28.2Z" fill="#86C8DC"/>
<path d="M64.9477 48.0215C64.8648 49.0271 64.0249 49.7999 63.0156 49.7999H63C61.986 49.7999 61.1436 49.0198 61.0656 48.0094L60.5616 41.449C58.6044 41.965 56.5799 42.439 54.5027 42.8697C54.3516 44.8137 54.21 46.6881 54.1223 47.995C54.0456 49.063 53.118 49.867 52.05 49.7902C51.0983 49.7218 50.3376 48.9717 50.256 48.0214L49.896 43.747C47.8308 44.107 45.7344 44.4346 43.6224 44.7285L43.3477 48.0213C43.2648 49.0269 42.4249 49.7996 41.4156 49.7996H41.4C40.386 49.7996 39.5436 49.0195 39.4656 48.0092L39.2567 45.2912C37.0536 45.5527 34.8504 45.7832 32.6663 45.9847C32.6111 46.7288 32.5607 47.4247 32.5223 47.9947C32.4456 49.0627 31.518 49.8667 30.45 49.7899C29.4983 49.7216 28.7376 48.9715 28.656 48.0211L28.5157 46.3411C26.25 46.5174 24.0228 46.6651 21.8544 46.7898L21.7512 48.0246C21.666 49.0302 20.8247 49.8018 19.8156 49.7995H19.8C18.786 49.7995 17.9436 49.0194 17.8656 48.009L17.7875 46.9962C15.4043 47.1055 13.1243 47.1871 10.9751 47.247C10.9571 47.5026 10.9378 47.769 10.9223 47.9945C10.8456 49.0626 9.918 49.8665 8.84996 49.7898C7.89835 49.7214 7.13757 48.9713 7.056 48.021L6.99835 47.3406C4.86479 47.3803 2.91839 47.4007 1.20361 47.4102V54.5994H70.8001V38.0071C69.1753 38.7078 67.4401 39.3583 65.6197 39.9582L64.9477 48.0215Z" fill="#F59A9A"/>
</svg>
