<svg width="72" height="72" viewBox="0 0 72 72" fill="none" xmlns="http://www.w3.org/2000/svg">
<g clip-path="url(#clip0_1_116)">
<path d="M48.0724 7.44838C45.8404 7.44838 43.632 7.90148 41.58 8.78038C38.0173 10.3086 33.9828 10.3086 30.42 8.78038C28.368 7.90148 26.1596 7.44838 23.9276 7.44838C14.8271 7.44712 7.44963 14.8247 7.44836 23.9253C7.44836 23.9265 7.44836 23.9265 7.44836 23.9278C7.44836 31.0062 9.43708 37.9429 13.1885 43.9451L13.6553 44.69L19.0615 68.4772C19.5295 70.5377 21.3617 72 23.4757 72C25.6902 72.0013 27.5809 70.4011 27.9446 68.2175L31.6688 45.8801C32.0213 43.7623 33.8524 42.2093 35.9999 42.2068C38.1488 42.2068 39.9822 43.7597 40.3361 45.8801L44.0602 68.2175C44.4239 70.3999 46.3121 71.9988 48.5242 72C50.6382 72 52.4706 70.5377 52.9386 68.477L58.3448 44.6897L58.8115 43.9448C62.563 37.9428 64.5517 31.0059 64.5517 23.9275C64.553 14.827 57.1753 7.44951 48.0748 7.44824C48.0737 7.44838 48.0737 7.44838 48.0724 7.44838Z" fill="#E6E6E6"/>
<path d="M52.2869 8.01318C44.9764 32.8594 25.2 44.0939 14.5167 48.481L19.0614 68.4759C19.6163 70.9139 22.0433 72.4395 24.4813 71.8848C26.2713 71.4777 27.6382 70.0289 27.9409 68.2177L31.6651 45.8803C32.0636 43.4857 34.3278 41.8668 36.7225 42.2654C38.576 42.5732 40.0296 44.0268 40.3374 45.8803L44.0616 68.2177C44.4738 70.6843 46.8076 72.349 49.2742 71.9357C51.0853 71.6328 52.534 70.266 52.9412 68.476L58.3449 44.69L58.8116 43.9451C62.5631 37.9431 64.5518 31.0062 64.5518 23.9279C64.5467 16.4546 59.5117 9.92118 52.2869 8.01318Z" fill="#DEDEDE"/>
<path d="M4.96547 9.93108C4.54092 7.38492 2.54602 5.39002 0 4.96547C2.54602 4.54092 4.54092 2.54602 4.96547 0C5.39002 2.54602 7.38492 4.54092 9.93094 4.96547C7.38492 5.39002 5.39002 7.38492 4.96547 9.93108Z" fill="#F9BC61"/>
<path d="M14.8966 23.5986H12.4138C12.4138 16.9013 17.1311 14.1902 19.6138 13.6924L20.1004 16.1255L19.862 14.9089L20.1104 16.1242C19.8993 16.1702 14.8966 17.3035 14.8966 23.5986Z" fill="#F2F2F2"/>
<path d="M24.8276 13.655H22.3449V16.1378H24.8276V13.655Z" fill="#F2F2F2"/>
<path d="M67.0345 62.0689C66.61 59.5228 64.6151 57.5279 62.0691 57.1034C64.6151 56.6789 66.61 54.684 67.0345 52.1379C67.4591 54.684 69.454 56.6789 72 57.1034C69.454 57.5279 67.4591 59.5228 67.0345 62.0689Z" fill="#F9BC61"/>
</g>
<defs>
<clipPath id="clip0_1_116">
<rect width="72" height="72" fill="white"/>
</clipPath>
</defs>
</svg>
