<svg width="72" height="72" viewBox="0 0 72 72" fill="none" xmlns="http://www.w3.org/2000/svg">
<g clip-path="url(#clip0_1_126)">
<path d="M30.0302 6.13097C28.2351 5.3626 26.3036 4.96533 24.3509 4.96533C16.3875 4.96533 9.93109 11.4217 9.93109 19.3852C9.93109 26.1866 11.8427 32.8517 15.4478 38.6191L16.138 39.724L19.352 63.2891C19.6449 65.4342 21.4772 67.0344 23.6422 67.0344C25.7587 67.0344 27.5649 65.5038 27.9138 63.4158L31.664 40.9146C32.0178 38.7942 33.8513 37.2413 36.0002 37.2413C38.149 37.2413 39.9825 38.7942 40.3363 40.9146L44.0865 63.4158C44.4354 65.5038 46.2416 67.0344 48.3581 67.0344C50.5231 67.0344 52.3554 65.4342 52.6483 63.2891L55.8623 39.724L56.5525 38.6191C60.1574 32.8517 62.0692 26.1868 62.0692 19.3852C62.0692 11.4217 55.6128 4.96533 47.6494 4.96533C45.6967 4.96533 43.765 5.3626 41.9701 6.13097C38.1575 7.76475 33.8425 7.76475 30.0302 6.13097Z" fill="#E6E6E6"/>
<path d="M54.6207 6.76538C46.7094 25.5923 29.0396 36.489 16.4644 42.1224L19.3518 63.2892C19.6684 65.659 21.8458 67.3248 24.2155 67.0083C26.106 66.7563 27.6095 65.2965 27.9173 63.4132L31.6675 40.9119C32.066 38.5174 34.3302 36.8985 36.7249 37.297C38.5783 37.6049 40.032 39.0585 40.3398 40.9119L44.09 63.4132C44.4749 65.773 46.6994 67.3745 49.0605 66.9908C50.9436 66.6843 52.4036 65.1809 52.6556 63.289L55.8621 39.7239L56.5523 38.619C60.1573 32.8516 62.0691 26.1867 62.0691 19.3851C62.0689 14.1368 59.2163 9.30155 54.6207 6.76538Z" fill="#DEDEDE"/>
<path d="M50.5322 62.9451L57.98 55.4973L56.2245 53.7418L48.7767 61.1896L50.5322 62.9451Z" fill="#A2DAEB"/>
<path d="M72 36L54.6207 53.3793L58.3449 57.1034L72 43.4483V36Z" fill="#00A6FF"/>
<path d="M43.4484 72C48.2475 72 52.138 69.221 52.138 65.7931C52.138 62.3651 48.2475 59.5862 43.4484 59.5862C38.6492 59.5862 34.7587 62.3651 34.7587 65.7931C34.7587 69.221 38.6492 72 43.4484 72Z" fill="#A2DAEB"/>
<path d="M17.3793 21.1059H14.8965C14.8965 14.4086 19.6138 11.6975 22.0965 11.1997L22.5831 13.6328L22.3447 12.4163L22.5931 13.6315C22.382 13.6775 17.3793 14.8108 17.3793 21.1059Z" fill="#F2F2F2"/>
<path d="M27.3104 11.1724H24.8276V13.6551H27.3104V11.1724Z" fill="#F2F2F2"/>
<path d="M9.93089 23.0051L14.8964 18.0396L9.93089 13.074L4.96536 18.0396L9.93089 23.0051Z" fill="#A2DAEB"/>
<path d="M22.0209 37.2415C19.2266 37.2389 16.9648 34.9709 16.9673 32.1778C16.9686 31.3933 17.1509 30.6198 17.5036 29.9173L18.3565 28.2116L11.5411 21.3964L13.2964 19.6411L20.1115 26.4562C20.8675 27.2122 21.055 28.3668 20.577 29.3226L19.7192 31.0344C19.0848 32.3081 19.6025 33.8548 20.8748 34.4891C21.5316 34.8168 22.2974 34.8479 22.979 34.5761L26.8484 33.0206L27.7721 35.3259L23.9002 36.8739C23.3031 37.1148 22.6651 37.2402 22.0209 37.2415Z" fill="#A2DAEB"/>
<path d="M0 0L11.1724 11.834L3.72417 19.2824L0 16.138V0Z" fill="#00A6FF"/>
</g>
<defs>
<clipPath id="clip0_1_126">
<rect width="72" height="72" fill="white"/>
</clipPath>
</defs>
</svg>
