<svg width="72" height="72" viewBox="0 0 72 72" fill="none" xmlns="http://www.w3.org/2000/svg">
<path d="M29.2531 0.832922C27.972 0.283078 26.594 0 25.2 0C19.5095 0 14.8965 4.61292 14.8965 10.3035C14.8978 14.9574 15.9815 19.548 18.062 23.7104L19.862 29.7931H52.1378L53.9378 23.7104C56.0184 19.548 57.1022 14.9574 57.1033 10.3035C57.1035 4.61292 52.4905 0 46.8 0C45.4047 0 44.0255 0.283078 42.7431 0.832922C38.4356 2.67764 33.5607 2.67764 29.2531 0.832922Z" fill="#E6E6E6"/>
<path d="M21.1035 12.4138H18.6207V10.9242C18.6865 7.96221 20.3487 5.26854 22.9656 3.88184L24.2071 6.0431C22.3649 6.99021 21.1781 8.85982 21.1036 10.9304V12.4138H21.1035Z" fill="#F2F2F2"/>
<path d="M39.7242 72H32.2758L29.7931 65.7931V37.2415H42.2069V65.7931L39.7242 72Z" fill="#00A6FF"/>
<path d="M47.0347 45.9232L47.3088 43.4556L24.9642 40.9736L24.6902 43.4412L47.0347 45.9232Z" fill="#4398D1"/>
<path d="M47.0339 53.3631L47.308 50.8955L24.9634 48.4135L24.6893 50.8811L47.0339 53.3631Z" fill="#4398D1"/>
<path d="M47.0343 60.8145L47.3084 58.3469L24.9638 55.865L24.6897 58.3325L47.0343 60.8145Z" fill="#4398D1"/>
<path d="M47.0347 68.2657L47.3087 65.7981L24.9642 63.3161L24.6901 65.7837L47.0347 68.2657Z" fill="#4398D1"/>
<path d="M47.1725 29.7932H24.8276V37.2416H47.1725V29.7932Z" fill="#DEDEDE"/>
<path d="M53.2689 2.28784C46.1917 18.2657 33.4005 25.9709 24.2578 29.7931H52.138L53.938 23.7104C56.0185 19.548 57.1023 14.9575 57.1035 10.3035C57.1071 7.1889 55.6957 4.24056 53.2689 2.28784Z" fill="#DEDEDE"/>
<path d="M47.1724 29.793H36V37.2413H47.1724V29.793Z" fill="#D1D1D1"/>
</svg>
